<svg width="34" height="34" viewBox="0 0 34 34" fill="none" xmlns="http://www.w3.org/2000/svg">
<path fill-rule="evenodd" clip-rule="evenodd" d="M17 4C17.131 3.99992 17.2604 4.0272 17.3794 4.07997C17.4984 4.13273 17.6041 4.20973 17.6893 4.30567L21.3172 8.389C21.4737 8.56537 21.5512 8.7945 21.5326 9.02598C21.514 9.25746 21.4009 9.47234 21.218 9.62333C21.0352 9.77433 20.7977 9.84908 20.5578 9.83114C20.3178 9.8132 20.0951 9.70404 19.9386 9.52767L17.907 7.241V20.0417C17.907 20.2737 17.8114 20.4963 17.6413 20.6604C17.4712 20.8245 17.2405 20.9167 17 20.9167C16.7595 20.9167 16.5288 20.8245 16.3587 20.6604C16.1886 20.4963 16.093 20.2737 16.093 20.0417V7.23983L14.0614 9.52767C13.9839 9.615 13.8893 9.68674 13.7831 9.73881C13.6768 9.79088 13.561 9.82226 13.4422 9.83114C13.3234 9.84002 13.2039 9.82624 13.0907 9.79059C12.9774 9.75493 12.8725 9.6981 12.782 9.62333C12.6914 9.54857 12.6171 9.45733 12.5631 9.35484C12.5091 9.25235 12.4766 9.1406 12.4674 9.02598C12.4582 8.91136 12.4725 8.79612 12.5094 8.68682C12.5464 8.57753 12.6053 8.47633 12.6828 8.389L16.3107 4.30567C16.3959 4.20973 16.5016 4.13273 16.6206 4.07997C16.7396 4.0272 16.869 3.99992 17 4ZM10.9487 12.169C11.1892 12.1678 11.4204 12.2588 11.5914 12.422C11.7624 12.5852 11.8592 12.8073 11.8605 13.0393C11.8617 13.2714 11.7674 13.4944 11.5982 13.6594C11.4291 13.8244 11.1989 13.9178 10.9583 13.919C9.63656 13.926 8.69935 13.9587 7.98707 14.0847C7.3026 14.2072 6.90474 14.402 6.61088 14.6855C6.27591 15.0087 6.05823 15.4625 5.93851 16.3188C5.81637 17.1997 5.81395 18.3675 5.81395 20.0417V21.2083C5.81395 22.8837 5.81637 24.0515 5.93851 24.9323C6.05823 25.7887 6.27712 26.2413 6.61088 26.5657C6.94586 26.8877 7.41507 27.0977 8.30391 27.2132C9.21572 27.3322 10.4274 27.3333 12.1628 27.3333H21.8372C23.5726 27.3333 24.7831 27.3322 25.6973 27.2132C26.5849 27.0977 27.0541 26.8877 27.3891 26.5645C27.7241 26.2413 27.9418 25.7887 28.0615 24.9323C28.1836 24.0515 28.186 22.8837 28.186 21.2083V20.0417C28.186 18.3675 28.1836 17.1997 28.0615 16.3177C27.9418 15.4625 27.7229 15.0087 27.3891 14.6855C27.094 14.402 26.6974 14.2072 26.0129 14.0847C25.3006 13.9587 24.3634 13.926 23.0417 13.919C22.9226 13.9184 22.8048 13.8951 22.695 13.8506C22.5852 13.8061 22.4855 13.7411 22.4018 13.6594C22.318 13.5777 22.2517 13.4809 22.2067 13.3745C22.1617 13.2681 22.1389 13.1542 22.1395 13.0393C22.1402 12.9244 22.1643 12.8108 22.2104 12.7048C22.2566 12.5989 22.3239 12.5028 22.4086 12.422C22.4933 12.3412 22.5936 12.2772 22.7039 12.2338C22.8142 12.1904 22.9322 12.1684 23.0513 12.169C24.3598 12.176 25.4494 12.2063 26.3407 12.3638C27.2573 12.5272 28.0373 12.8363 28.6722 13.4488C29.4002 14.15 29.7122 15.0355 29.8597 16.0855C30 17.0958 30 18.3827 30 19.9775V21.2725C30 22.8685 30 24.1542 29.8597 25.1657C29.7122 26.2157 29.4002 27.1 28.6722 27.8023C27.9442 28.5047 27.0275 28.8057 25.9392 28.948C24.8907 29.0833 23.5568 29.0833 21.9037 29.0833H12.0963C10.4432 29.0833 9.1093 29.0833 8.06084 28.948C6.97246 28.8068 6.05581 28.5047 5.32781 27.8023C4.59981 27.1 4.28781 26.2157 4.14149 25.1657C4 24.1542 4 22.8673 4 21.2725V19.9775C4 18.3827 4 17.0958 4.14149 16.0843C4.2866 15.0343 4.60102 14.15 5.32781 13.4477C5.9627 12.8363 6.7427 12.526 7.65935 12.3638C8.5506 12.2063 9.64019 12.176 10.9487 12.169Z" fill="white"/>
</svg>
